<svg width="28" height="28" viewBox="0 0 28 28" fill="none" xmlns="http://www.w3.org/2000/svg">
<path d="M10.5 23C10.5 22.5833 10.3542 22.2292 10.0625 21.9375C9.77083 21.6458 9.41667 21.5 9 21.5C8.58333 21.5 8.22917 21.6458 7.9375 21.9375C7.64583 22.2292 7.5 22.5833 7.5 23C7.5 23.4167 7.64583 23.7708 7.9375 24.0625C8.22917 24.3542 8.58333 24.5 9 24.5C9.41667 24.5 9.77083 24.3542 10.0625 24.0625C10.3542 23.7708 10.5 23.4167 10.5 23ZM10.5 5C10.5 4.58333 10.3542 4.22917 10.0625 3.9375C9.77083 3.64583 9.41667 3.5 9 3.5C8.58333 3.5 8.22917 3.64583 7.9375 3.9375C7.64583 4.22917 7.5 4.58333 7.5 5C7.5 5.41667 7.64583 5.77083 7.9375 6.0625C8.22917 6.35417 8.58333 6.5 9 6.5C9.41667 6.5 9.77083 6.35417 10.0625 6.0625C10.3542 5.77083 10.5 5.41667 10.5 5ZM20.5 7C20.5 6.58333 20.3542 6.22917 20.0625 5.9375C19.7708 5.64583 19.4167 5.5 19 5.5C18.5833 5.5 18.2292 5.64583 17.9375 5.9375C17.6458 6.22917 17.5 6.58333 17.5 7C17.5 7.41667 17.6458 7.77083 17.9375 8.0625C18.2292 8.35417 18.5833 8.5 19 8.5C19.4167 8.5 19.7708 8.35417 20.0625 8.0625C20.3542 7.77083 20.5 7.41667 20.5 7ZM22 7C22 7.54167 21.8646 8.04427 21.5938 8.50781C21.3229 8.97135 20.9583 9.33333 20.5 9.59375C20.4792 12.5833 19.3021 14.7396 16.9688 16.0625C16.2604 16.4583 15.2031 16.8802 13.7969 17.3281C12.4635 17.7448 11.5807 18.1146 11.1484 18.4375C10.7161 18.7604 10.5 19.2813 10.5 20V20.4063C10.9583 20.6667 11.3229 21.0286 11.5938 21.4922C11.8646 21.9557 12 22.4583 12 23C12 23.8333 11.7083 24.5417 11.125 25.125C10.5417 25.7083 9.83333 26 9 26C8.16667 26 7.45833 25.7083 6.875 25.125C6.29167 24.5417 6 23.8333 6 23C6 22.4583 6.13542 21.9557 6.40625 21.4922C6.67708 21.0286 7.04167 20.6667 7.5 20.4063V7.59375C7.04167 7.33333 6.67708 6.97135 6.40625 6.50781C6.13542 6.04427 6 5.54167 6 5C6 4.16667 6.29167 3.45833 6.875 2.875C7.45833 2.29167 8.16667 2 9 2C9.83333 2 10.5417 2.29167 11.125 2.875C11.7083 3.45833 12 4.16667 12 5C12 5.54167 11.8646 6.04427 11.5938 6.50781C11.3229 6.97135 10.9583 7.33333 10.5 7.59375V15.3594C11.0625 15.0885 11.8646 14.7917 12.9063 14.4688C13.4792 14.2917 13.9349 14.138 14.2734 14.0078C14.612 13.8776 14.9792 13.7161 15.375 13.5234C15.7708 13.3307 16.0781 13.125 16.2969 12.9063C16.5156 12.6875 16.7266 12.4219 16.9297 12.1094C17.1328 11.7969 17.2786 11.4349 17.3672 11.0234C17.4557 10.612 17.5 10.1354 17.5 9.59375C17.0417 9.33333 16.6771 8.97135 16.4063 8.50781C16.1354 8.04427 16 7.54167 16 7C16 6.16667 16.2917 5.45833 16.875 4.875C17.4583 4.29167 18.1667 4 19 4C19.8333 4 20.5417 4.29167 21.125 4.875C21.7083 5.45833 22 6.16667 22 7Z" fill="#E87F72"/>
</svg>
